<?xml version="1.0" encoding="UTF-8"?>
<svg id="Layer_1" xmlns="http://www.w3.org/2000/svg" xmlns:xlink="http://www.w3.org/1999/xlink" viewBox="0 0 72 68.67">
  <defs>
    <style>
      .cls-1 {
        fill: url(#linear-gradient-2);
      }

      .cls-2 {
        stroke: #fff;
        stroke-linecap: square;
        stroke-width: 2px;
      }

      .cls-2, .cls-3 {
        fill: none;
        stroke-linejoin: round;
      }

      .cls-4 {
        fill: #fff;
      }

      .cls-5 {
        fill: url(#linear-gradient-4);
      }

      .cls-6 {
        fill: url(#linear-gradient-3);
      }

      .cls-3 {
        stroke: #000;
        stroke-linecap: round;
        stroke-width: 4px;
      }

      .cls-7 {
        fill: url(#linear-gradient);
      }
    </style>
    <linearGradient id="linear-gradient" x1="36" y1="7.42" x2="36" y2="63.54" gradientUnits="userSpaceOnUse">
      <stop offset="0" stop-color="#bbedff"/>
      <stop offset="1" stop-color="#43658d"/>
    </linearGradient>
    <linearGradient id="linear-gradient-2" x1="19.65" y1="50.19" x2="19.65" y2="58.84" gradientUnits="userSpaceOnUse">
      <stop offset="0" stop-color="#c5f5ff"/>
      <stop offset="1" stop-color="#7fa1e1"/>
    </linearGradient>
    <linearGradient id="linear-gradient-3" x1="36.33" y1="48.54" x2="36.33" y2="62.53" xlink:href="#linear-gradient-2"/>
    <linearGradient id="linear-gradient-4" x1="49.7" y1="48.02" x2="49.7" xlink:href="#linear-gradient-2"/>
  </defs>
  <g>
    <g>
      <path class="cls-3" d="M52.04,51.91l-1.41-3.88-1.96-5.33c1.36-.84,2.91-1.5,4.51-1.5.53,0,1.01.07,1.49.36-.55.5-.84,1.29-.84,2.16,0,1.46,1.06,2.61,2.19,2.61,1.25,0,2.14-1.37,2.14-2.9,0-3.33-3.21-4.12-5.34-4.12-1.72,0-3.46.3-5.05,1.02l-3.18-8.75-.39-1.02-.88-2.45-7.42-20.34-2.49,6.81-.91,2.44s.01.02.02.02l-4.04,10.99-.02-.02-1.58,4.29-2.91,7.96c-1.55-.64-3.21-.94-4.81-.94-2.2,0-5.33.8-5.33,4.12,0,1.53.87,2.9,2.12,2.9,1.13,0,2.2-1.15,2.2-2.61,0-.86-.35-1.66-.9-2.16.48-.3,1.07-.36,1.6-.36,1.49,0,2.92.59,4.28,1.46l-2.9,7.77-1.03,2.79c-.95,2.6-2.54,3.89-4.85,4.11v1.53h9.96l.6-1.15c-1.13-.6-3.44-1.97-3.44-3.61,0-.31.55-1.99,1.24-3.9.91-2.52,2.03-5.46,2.33-6.23,1.75,1.49,3.3,3.43,4.7,5.6,2.51,3.95,4.42,8.68,5.74,12.99h.94c1.58-4.96,3.66-9.91,6.47-13.99.12-.21.28-.42.42-.62.06.12.13.32.22.56.6,1.54,1.92,4.95,1.92,5.59,0,1.65-2.38,3.02-3.45,3.61l.54,1.15h14.83v-1.53c-3.08,0-4.21-2.32-5.35-5.42ZM35.9,50.81c-.41-.56-.83-1.11-1.25-1.66-2.48-3.19-5.26-6.1-8.6-7.96l1.53-4.12,1.91-5.14,2.02-5.42,2.2-5.95,2.63,7.53,1.05,2.97.88,2.52.88,2.51,2.8,7.85c-1.69,1.46-3.25,3.17-4.67,5-.48.61-.94,1.23-1.38,1.87Z"/>
      <path class="cls-3" d="M35.9,7.76l7.42,20.34.88,2.45.39,1.02,3.18,8.75c1.59-.72,3.33-1.02,5.05-1.02,2.13,0,5.34.8,5.34,4.12,0,1.53-.9,2.9-2.14,2.9-1.13,0-2.19-1.15-2.19-2.61,0-.86.29-1.66.84-2.16-.49-.3-.96-.36-1.49-.36-1.6,0-3.15.66-4.51,1.5l1.96,5.33,1.41,3.88c1.14,3.09,2.27,5.42,5.35,5.42v1.53h-14.83l-.54-1.15c1.07-.6,3.45-1.97,3.45-3.61,0-.64-1.33-4.06-1.92-5.59-.09-.24-.17-.44-.22-.56-.14.2-.3.41-.42.62-2.81,4.08-4.88,9.03-6.47,13.99h-.94c-1.32-4.31-3.23-9.04-5.74-12.99-1.39-2.18-2.95-4.11-4.7-5.6-.3.77-1.43,3.71-2.33,6.23-.69,1.91-1.24,3.59-1.24,3.9,0,1.65,2.31,3.02,3.44,3.61l-.6,1.15h-9.96v-1.53c2.31-.22,3.9-1.51,4.85-4.11l1.03-2.79,2.9-7.77c-1.36-.87-2.79-1.46-4.28-1.46-.53,0-1.13.07-1.6.36.54.5.9,1.29.9,2.16,0,1.46-1.07,2.61-2.2,2.61-1.25,0-2.12-1.37-2.12-2.9,0-3.33,3.13-4.12,5.33-4.12,1.6,0,3.26.3,4.81.94l2.91-7.96,1.58-4.29s.01.01.02.02l4.04-10.99s-.01-.02-.02-.02l.91-2.44,2.49-6.81M35.9,50.81c.44-.64.91-1.26,1.38-1.87,1.43-1.82,2.98-3.54,4.67-5l-2.8-7.85-.88-2.51-.88-2.52-1.05-2.97-2.63-7.53-2.2,5.95-2.02,5.42-1.91,5.14-1.53,4.12c3.34,1.86,6.12,4.76,8.6,7.96.42.55.84,1.09,1.25,1.66M34.96,7.42l-2.49,6.81-.9,2.44.02.03-4.03,10.95h-.03s-1.58,4.29-1.58,4.29l-2.56,7.02c-1.34-.43-2.78-.66-4.21-.66-3.06,0-6.33,1.35-6.33,5.12,0,2.18,1.37,3.9,3.12,3.9s3.2-1.65,3.2-3.61c0-.53-.1-1.04-.29-1.52.95,0,1.96.29,3.05.89l-2.6,6.99-1.03,2.79c-.81,2.21-2.04,3.27-4.01,3.46l-.9,1v1.53l1,1h9.96l.89-.54.6-1.15-.42-1.34c-1.79-.95-2.87-1.95-2.9-2.69.05-.24.34-1.26,1.18-3.6.61-1.69,1.32-3.58,1.8-4.83,1.19,1.19,2.34,2.67,3.45,4.4,2.76,4.34,4.58,9.32,5.62,12.74l.96.71h.94l.95-.7c1.62-5.09,3.53-9.37,5.69-12.76.88,2.31,1.35,3.66,1.38,4.03,0,.47-.51,1.36-2.94,2.71l-.42,1.3.54,1.15.9.57h14.83l1-1v-1.53l-1-1c-2.28,0-3.2-1.47-4.41-4.76l-1.41-3.88-1.67-4.54c1.16-.62,2.21-.93,3.19-.95-.17.46-.26.98-.26,1.52,0,1.96,1.46,3.61,3.19,3.61s3.14-1.71,3.14-3.9c0-3.78-3.41-5.12-6.34-5.12-1.6,0-3.1.24-4.46.71l-2.83-7.79-.39-1.03-.88-2.44-7.42-20.34h-1.88ZM27.28,40.76l1.23-3.34,1.91-5.14,2.02-5.41,1.24-3.34,1.71,4.9,1.05,2.98.88,2.52.88,2.51,2.57,7.21c-1.45,1.31-2.89,2.88-4.29,4.68-.22.28-.42.54-.61.79-.05-.06-.1-.13-.15-.19l-.29-.38c-2.79-3.6-5.41-6.1-8.17-7.79h0Z"/>
    </g>
    <g>
      <path class="cls-2" d="M52.04,51.91l-1.41-3.88-1.96-5.33c1.36-.84,2.91-1.5,4.51-1.5.53,0,1.01.07,1.49.36-.55.5-.84,1.29-.84,2.16,0,1.46,1.06,2.61,2.19,2.61,1.25,0,2.14-1.37,2.14-2.9,0-3.33-3.21-4.12-5.34-4.12-1.72,0-3.46.3-5.05,1.02l-3.18-8.75-.39-1.02-.88-2.45-7.42-20.34-2.49,6.81-.91,2.44s.01.02.02.02l-4.04,10.99-.02-.02-1.58,4.29-2.91,7.96c-1.55-.64-3.21-.94-4.81-.94-2.2,0-5.33.8-5.33,4.12,0,1.53.87,2.9,2.12,2.9,1.13,0,2.2-1.15,2.2-2.61,0-.86-.35-1.66-.9-2.16.48-.3,1.07-.36,1.6-.36,1.49,0,2.92.59,4.28,1.46l-2.9,7.77-1.03,2.79c-.95,2.6-2.54,3.89-4.85,4.11v1.53h9.96l.6-1.15c-1.13-.6-3.44-1.97-3.44-3.61,0-.31.55-1.99,1.24-3.9.91-2.52,2.03-5.46,2.33-6.23,1.75,1.49,3.3,3.43,4.7,5.6,2.51,3.95,4.42,8.68,5.74,12.99h.94c1.58-4.96,3.66-9.91,6.47-13.99.12-.21.28-.42.42-.62.06.12.13.32.22.56.6,1.54,1.92,4.95,1.92,5.59,0,1.65-2.38,3.02-3.45,3.61l.54,1.15h14.83v-1.53c-3.08,0-4.21-2.32-5.35-5.42ZM35.9,50.81c-.41-.56-.83-1.11-1.25-1.66-2.48-3.19-5.26-6.1-8.6-7.96l1.53-4.12,1.91-5.14,2.02-5.42,2.2-5.95,2.63,7.53,1.05,2.97.88,2.52.88,2.51,2.8,7.85c-1.69,1.46-3.25,3.17-4.67,5-.48.61-.94,1.23-1.38,1.87Z"/>
      <path class="cls-2" d="M35.9,7.76l7.42,20.34.88,2.45.39,1.02,3.18,8.75c1.59-.72,3.33-1.02,5.05-1.02,2.13,0,5.34.8,5.34,4.12,0,1.53-.9,2.9-2.14,2.9-1.13,0-2.19-1.15-2.19-2.61,0-.86.29-1.66.84-2.16-.49-.3-.96-.36-1.49-.36-1.6,0-3.15.66-4.51,1.5l1.96,5.33,1.41,3.88c1.14,3.09,2.27,5.42,5.35,5.42v1.53h-14.83l-.54-1.15c1.07-.6,3.45-1.97,3.45-3.61,0-.64-1.33-4.06-1.92-5.59-.09-.24-.17-.44-.22-.56-.14.2-.3.41-.42.62-2.81,4.08-4.88,9.03-6.47,13.99h-.94c-1.32-4.31-3.23-9.04-5.74-12.99-1.39-2.18-2.95-4.11-4.7-5.6-.3.77-1.43,3.71-2.33,6.23-.69,1.91-1.24,3.59-1.24,3.9,0,1.65,2.31,3.02,3.44,3.61l-.6,1.15h-9.96v-1.53c2.31-.22,3.9-1.51,4.85-4.11l1.03-2.79,2.9-7.77c-1.36-.87-2.79-1.46-4.28-1.46-.53,0-1.13.07-1.6.36.54.5.9,1.29.9,2.16,0,1.46-1.07,2.61-2.2,2.61-1.25,0-2.12-1.37-2.12-2.9,0-3.33,3.13-4.12,5.33-4.12,1.6,0,3.26.3,4.81.94l2.91-7.96,1.58-4.29s.01.01.02.02l4.04-10.99s-.01-.02-.02-.02l.91-2.44,2.49-6.81M35.9,50.81c.44-.64.91-1.26,1.38-1.87,1.43-1.82,2.98-3.54,4.67-5l-2.8-7.85-.88-2.51-.88-2.52-1.05-2.97-2.63-7.53-2.2,5.95-2.02,5.42-1.91,5.14-1.53,4.12c3.34,1.86,6.12,4.76,8.6,7.96.42.55.84,1.09,1.25,1.66M34.96,7.42l-2.49,6.81-.9,2.44.02.03-4.03,10.95h-.03s-1.58,4.29-1.58,4.29l-2.56,7.02c-1.34-.43-2.78-.66-4.21-.66-3.06,0-6.33,1.35-6.33,5.12,0,2.18,1.37,3.9,3.12,3.9s3.2-1.65,3.2-3.61c0-.53-.1-1.04-.29-1.52.95,0,1.96.29,3.05.89l-2.6,6.99-1.03,2.79c-.81,2.21-2.04,3.27-4.01,3.46l-.9,1v1.53l1,1h9.96l.89-.54.6-1.15-.42-1.34c-1.79-.95-2.87-1.95-2.9-2.69.05-.24.34-1.26,1.18-3.6.61-1.69,1.32-3.58,1.8-4.83,1.19,1.19,2.34,2.67,3.45,4.4,2.76,4.34,4.58,9.32,5.62,12.74l.96.71h.94l.95-.7c1.62-5.09,3.53-9.37,5.69-12.76.88,2.31,1.35,3.66,1.38,4.03,0,.47-.51,1.36-2.94,2.71l-.42,1.3.54,1.15.9.57h14.83l1-1v-1.53l-1-1c-2.28,0-3.2-1.47-4.41-4.76l-1.41-3.88-1.67-4.54c1.16-.62,2.21-.93,3.19-.95-.17.46-.26.98-.26,1.52,0,1.96,1.46,3.61,3.19,3.61s3.14-1.71,3.14-3.9c0-3.78-3.41-5.12-6.34-5.12-1.6,0-3.1.24-4.46.71l-2.83-7.79-.39-1.03-.88-2.44-7.42-20.34h-1.88ZM27.28,40.76l1.23-3.34,1.91-5.14,2.02-5.41,1.24-3.34,1.71,4.9,1.05,2.98.88,2.52.88,2.51,2.57,7.21c-1.45,1.31-2.89,2.88-4.29,4.68-.22.28-.42.54-.61.79-.05-.06-.1-.13-.15-.19l-.29-.38c-2.79-3.6-5.41-6.1-8.17-7.79h0Z"/>
    </g>
    <g>
      <path class="cls-4" d="M52.04,51.91l-1.41-3.88-1.96-5.33c1.36-.84,2.91-1.5,4.51-1.5.53,0,1.01.07,1.49.36-.55.5-.84,1.29-.84,2.16,0,1.46,1.06,2.61,2.19,2.61,1.25,0,2.14-1.37,2.14-2.9,0-3.33-3.21-4.12-5.34-4.12-1.72,0-3.46.3-5.05,1.02l-3.18-8.75-.39-1.02-.88-2.45-7.42-20.34-2.49,6.81-.91,2.44s.01.02.02.02l-4.04,10.99-.02-.02-1.58,4.29-2.91,7.96c-1.55-.64-3.21-.94-4.81-.94-2.2,0-5.33.8-5.33,4.12,0,1.53.87,2.9,2.12,2.9,1.13,0,2.2-1.15,2.2-2.61,0-.86-.35-1.66-.9-2.16.48-.3,1.07-.36,1.6-.36,1.49,0,2.92.59,4.28,1.46l-2.9,7.77-1.03,2.79c-.95,2.6-2.54,3.89-4.85,4.11v1.53h9.96l.6-1.15c-1.13-.6-3.44-1.97-3.44-3.61,0-.31.55-1.99,1.24-3.9.91-2.52,2.03-5.46,2.33-6.23,1.75,1.49,3.3,3.43,4.7,5.6,2.51,3.95,4.42,8.68,5.74,12.99h.94c1.58-4.96,3.66-9.91,6.47-13.99.12-.21.28-.42.42-.62.06.12.13.32.22.56.6,1.54,1.92,4.95,1.92,5.59,0,1.65-2.38,3.02-3.45,3.61l.54,1.15h14.83v-1.53c-3.08,0-4.21-2.32-5.35-5.42ZM35.9,50.81c-.41-.56-.83-1.11-1.25-1.66-2.48-3.19-5.26-6.1-8.6-7.96l1.53-4.12,1.91-5.14,2.02-5.42,2.2-5.95,2.63,7.53,1.05,2.97.88,2.52.88,2.51,2.8,7.85c-1.69,1.46-3.25,3.17-4.67,5-.48.61-.94,1.23-1.38,1.87Z"/>
      <path class="cls-7" d="M35.9,7.76l7.42,20.34.88,2.45.39,1.02,3.18,8.75c1.59-.72,3.33-1.02,5.05-1.02,2.13,0,5.34.8,5.34,4.12,0,1.53-.9,2.9-2.14,2.9-1.13,0-2.19-1.15-2.19-2.61,0-.86.29-1.66.84-2.16-.49-.3-.96-.36-1.49-.36-1.6,0-3.15.66-4.51,1.5l1.96,5.33,1.41,3.88c1.14,3.09,2.27,5.42,5.35,5.42v1.53h-14.83l-.54-1.15c1.07-.6,3.45-1.97,3.45-3.61,0-.64-1.33-4.06-1.92-5.59-.09-.24-.17-.44-.22-.56-.14.2-.3.41-.42.62-2.81,4.08-4.88,9.03-6.47,13.99h-.94c-1.32-4.31-3.23-9.04-5.74-12.99-1.39-2.18-2.95-4.11-4.7-5.6-.3.77-1.43,3.71-2.33,6.23-.69,1.91-1.24,3.59-1.24,3.9,0,1.65,2.31,3.02,3.44,3.61l-.6,1.15h-9.96v-1.53c2.31-.22,3.9-1.51,4.85-4.11l1.03-2.79,2.9-7.77c-1.36-.87-2.79-1.46-4.28-1.46-.53,0-1.13.07-1.6.36.54.5.9,1.29.9,2.16,0,1.46-1.07,2.61-2.2,2.61-1.25,0-2.12-1.37-2.12-2.9,0-3.33,3.13-4.12,5.33-4.12,1.6,0,3.26.3,4.81.94l2.91-7.96,1.58-4.29s.01.01.02.02l4.04-10.99s-.01-.02-.02-.02l.91-2.44,2.49-6.81M35.9,50.81c.44-.64.91-1.26,1.38-1.87,1.43-1.82,2.98-3.54,4.67-5l-2.8-7.85-.88-2.51-.88-2.52-1.05-2.97-2.63-7.53-2.2,5.95-2.02,5.42-1.91,5.14-1.53,4.12c3.34,1.86,6.12,4.76,8.6,7.96.42.55.84,1.09,1.25,1.66M34.96,7.42l-2.49,6.81-.9,2.44.02.03-4.03,10.95h-.03s-1.58,4.29-1.58,4.29l-2.56,7.02c-1.34-.43-2.78-.66-4.21-.66-3.06,0-6.33,1.35-6.33,5.12,0,2.18,1.37,3.9,3.12,3.9s3.2-1.65,3.2-3.61c0-.53-.1-1.04-.29-1.52.95,0,1.96.29,3.05.89l-2.6,6.99-1.03,2.79c-.81,2.21-2.04,3.27-4.01,3.46l-.9,1v1.53l1,1h9.96l.89-.54.6-1.15-.42-1.34c-1.79-.95-2.87-1.95-2.9-2.69.05-.24.34-1.26,1.18-3.6.61-1.69,1.32-3.58,1.8-4.83,1.19,1.19,2.34,2.67,3.45,4.4,2.76,4.34,4.58,9.32,5.62,12.74l.96.71h.94l.95-.7c1.62-5.09,3.53-9.37,5.69-12.76.88,2.31,1.35,3.66,1.38,4.03,0,.47-.51,1.36-2.94,2.71l-.42,1.3.54,1.15.9.57h14.83l1-1v-1.53l-1-1c-2.28,0-3.2-1.47-4.41-4.76l-1.41-3.88-1.67-4.54c1.16-.62,2.21-.93,3.19-.95-.17.46-.26.98-.26,1.52,0,1.96,1.46,3.61,3.19,3.61s3.14-1.71,3.14-3.9c0-3.78-3.41-5.12-6.34-5.12-1.6,0-3.1.24-4.46.71l-2.83-7.79-.39-1.03-.88-2.44-7.42-20.34h-1.88ZM27.28,40.76l1.23-3.34,1.91-5.14,2.02-5.41,1.24-3.34,1.71,4.9,1.05,2.98.88,2.52.88,2.51,2.57,7.21c-1.45,1.31-2.89,2.88-4.29,4.68-.22.28-.42.54-.61.79-.05-.06-.1-.13-.15-.19l-.29-.38c-2.79-3.6-5.41-6.1-8.17-7.79h0Z"/>
    </g>
  </g>
  <path class="cls-1" d="M24.93,57.7l-.6,1.14h-9.96v-1.52c2.31-.22,3.9-1.52,4.85-4.12l1.03-2.79c.82-.07,1.64-.16,2.47-.24-.68,1.9-1.24,3.58-1.24,3.89,0,1.65,2.31,3.02,3.44,3.62Z"/>
  <path class="cls-6" d="M42.9,48.54c-2.81,4.08-4.89,9.03-6.47,13.99h-.95c-1.31-4.3-3.22-9.04-5.73-12.98,1.6-.14,3.25-.27,4.9-.4.87-.07,1.74-.14,2.62-.21,1.85-.14,3.72-.27,5.62-.4Z"/>
  <path class="cls-5" d="M57.39,57.32v1.52h-14.84l-.53-1.14c1.07-.6,3.44-1.96,3.44-3.62,0-.63-1.33-4.05-1.93-5.58,2.33-.16,4.69-.32,7.09-.47l1.42,3.88c1.13,3.1,2.26,5.42,5.35,5.42Z"/>
</svg>